# xmcd CD database file
#
# Track frame offsets:
#	150
#	13762
#	26632
#	40930
#	52960
#	63012
#	75497
#	93555
#	104797
#	116302
#	131647
#	145630
#	160270
#	173240
#	185775
#	201057
#	221370
#	231492
#	242302
#	260134
#
# Disc length: 3670 seconds
#
# Revision: 0
# Processed by: cddbd v1.4PL0 Copyright (c) Steve Scherf et al.
# Submitted via: CDex 1.40Beta8
#
DISCID=150e5414
DTITLE=José Mendes - Raízes dsos Pampas
DYEAR=1900
DGENRE=Country
TTITLE0=Pára Pedro
TTITLE1=Não Chores Chinoca
TTITLE2=Uma Aventura a Mais
TTITLE3=Parabéns
TTITLE4=Pequena Paisagem de Amor
TTITLE5=Mulher Feia
TTITLE6=As Coisas do Meu Rincão
TTITLE7=Gaudério
TTITLE8=Corações Amantes
TTITLE9=Roubei a Fazendeira
TTITLE10=Minha Acordeona
TTITLE11=Picaço Velho
TTITLE12=Três Companheiros
TTITLE13=Para Amar Não Tem Distância
TTITLE14=Couringando
TTITLE15=Não Espalha
TTITLE16=Terra Que Canto
TTITLE17=Moda de Agora
TTITLE18=Sangue Criolo
TTITLE19=História dos Pedros
EXTD=ID3G: 2
EXTT0=
EXTT1=
EXTT2=
EXTT3=
EXTT4=
EXTT5=
EXTT6=
EXTT7=
EXTT8=
EXTT9=
EXTT10=
EXTT11=
EXTT12=
EXTT13=
EXTT14=
EXTT15=
EXTT16=
EXTT17=
EXTT18=
EXTT19=
PLAYORDER=
